<svg xmlns="http://www.w3.org/2000/svg" xmlns:xlink="http://www.w3.org/1999/xlink" viewBox="0 0 214.69 295.77"><defs><style>.cls-1{fill:url(#linear-gradient);}.cls-2{fill:url(#linear-gradient-2);}.cls-3{fill:url(#linear-gradient-3);}.cls-4{fill:#ed2024;}.cls-5{fill:url(#linear-gradient-4);}.cls-6{fill:url(#linear-gradient-5);}.cls-7{fill:url(#linear-gradient-6);}.cls-8{fill:url(#linear-gradient-7);}.cls-9{fill:url(#linear-gradient-8);}.cls-10{fill:url(#linear-gradient-9);}.cls-11{fill:url(#linear-gradient-10);}.cls-12{fill:url(#linear-gradient-11);}.cls-13{fill:url(#linear-gradient-12);}.cls-14{fill:url(#linear-gradient-13);}.cls-15{fill:url(#linear-gradient-14);}</style><linearGradient id="linear-gradient" x1="35.31" y1="284.74" x2="50.67" y2="284.74" gradientUnits="userSpaceOnUse"><stop offset="0" stop-color="#d8b04c"/><stop offset="1" stop-color="#b87a33"/></linearGradient><linearGradient id="linear-gradient-2" x1="55.91" y1="284.74" x2="71.27" y2="284.74" xlink:href="#linear-gradient"/><linearGradient id="linear-gradient-3" x1="14.71" y1="284.74" x2="30.07" y2="284.74" xlink:href="#linear-gradient"/><linearGradient id="linear-gradient-4" x1="120.47" y1="284.74" x2="140.64" y2="284.74" xlink:href="#linear-gradient"/><linearGradient id="linear-gradient-5" x1="142.87" y1="284.74" x2="164.91" y2="284.74" xlink:href="#linear-gradient"/><linearGradient id="linear-gradient-6" x1="170.13" y1="284.74" x2="187.01" y2="284.74" xlink:href="#linear-gradient"/><linearGradient id="linear-gradient-7" x1="0" y1="238.29" x2="6.34" y2="238.29" xlink:href="#linear-gradient"/><linearGradient id="linear-gradient-8" x1="19.24" y1="238.29" x2="52.69" y2="238.29" xlink:href="#linear-gradient"/><linearGradient id="linear-gradient-9" x1="60.56" y1="238.29" x2="94.69" y2="238.29" xlink:href="#linear-gradient"/><linearGradient id="linear-gradient-10" x1="102.56" y1="238.29" x2="130.76" y2="238.29" xlink:href="#linear-gradient"/><linearGradient id="linear-gradient-11" x1="140.28" y1="238.29" x2="173.73" y2="238.29" xlink:href="#linear-gradient"/><linearGradient id="linear-gradient-12" x1="181.94" y1="238.29" x2="214.69" y2="238.29" xlink:href="#linear-gradient"/><linearGradient id="linear-gradient-13" x1="108.64" y1="116.8" x2="179.71" y2="116.8" xlink:href="#linear-gradient"/><linearGradient id="linear-gradient-14" x1="21.93" y1="95.83" x2="102.49" y2="95.83" xlink:href="#linear-gradient"/></defs><g id="Layer_2" data-name="Layer 2"><g id="Layer_1-2" data-name="Layer 1"><path class="cls-1" d="M50.67,291.88v3.89H35.31V273.71h3.88v18.17Z"/><path class="cls-2" d="M71.27,291.88v3.89H55.91V273.71H71.27v3.88H59.79V283H68.9v3.88H59.79v5.05Z"/><path class="cls-3" d="M30.07,291.88v3.89H14.71V273.71H30.07v3.88H18.6V283h9.11v3.88H18.6v5.05Z"/><path class="cls-4" d="M98.15,273.71,87.07,295.77,75.9,273.71,81,276.18l6,3"/><path class="cls-4" d="M109.07,290.25l-6,3-5.11,2.48,11.18-22.06,11.08,22.06"/><path class="cls-5" d="M128.6,295.77V277.59h-8.13v-3.88h20.17v3.88h-8.15v18.18Z"/><path class="cls-6" d="M158.17,294.89a10.87,10.87,0,0,1-8.57,0,10.88,10.88,0,0,1-5.85-5.87,10.85,10.85,0,0,1,0-8.56,10.73,10.73,0,0,1,5.85-5.86,10.87,10.87,0,0,1,8.57,0,11.17,11.17,0,0,1,3.52,2.34,11.37,11.37,0,0,1,2.35,3.52,11,11,0,0,1,0,8.56,11.2,11.2,0,0,1-2.35,3.51A11.05,11.05,0,0,1,158.17,294.89Zm-11.42-10.15a7.14,7.14,0,0,0,10.72,6.18,7.12,7.12,0,0,0,2.6-2.6,7.17,7.17,0,0,0,0-7.17,7.1,7.1,0,0,0-2.6-2.59,7,7,0,0,0-3.58-1,6.92,6.92,0,0,0-2.78.57,7.35,7.35,0,0,0-2.27,1.52,7.18,7.18,0,0,0-1.52,2.27A7,7,0,0,0,146.75,284.74Z"/><path class="cls-7" d="M174,288.25v7.52h-3.88V273.71h9.42a7.18,7.18,0,0,1,2.82.57,7.37,7.37,0,0,1,2.32,1.55,7.15,7.15,0,0,1,1.55,2.33,7,7,0,0,1,.58,2.82,7.32,7.32,0,0,1-3.39,6.15l3.58,8.64H182.5l-3.17-7.52Zm7.93-4.87a3.39,3.39,0,0,0-2.39-5.79H174v6.78h5.54A3.26,3.26,0,0,0,181.94,283.38Z"/><path class="cls-8" d="M0,214.16H6.34v48.27H0Z"/><path class="cls-9" d="M25,214.16l22.27,35.23A48.49,48.49,0,0,1,50,255V214.16h2.69v48.27H47.86L26.48,229a47.1,47.1,0,0,1-4.55-8.82v42.27H19.24V214.16Z"/><path class="cls-10" d="M79.17,257.47l12.69-43.31h2.83L80.42,262.43H74.28L60.56,214.16h6.55Z"/><path class="cls-11" d="M102.56,214.16h27.51v2.2H108.9V236.5h17v2.27h-17v21.45h21.86v2.21h-28.2Z"/><path class="cls-12" d="M146.08,214.16l22.27,35.23A48.49,48.49,0,0,1,171,255V214.16h2.69v48.27H168.9L147.52,229a47.1,47.1,0,0,1-4.55-8.82v42.27h-2.69V214.16Z"/><path class="cls-13" d="M195.39,216.36H181.94v-2.2h32.75v2.2h-13v46.07h-6.34Z"/><path class="cls-14" d="M127.62,113.43,142.4,123v67.16h37.31V43.42h-56v63.7h-15v83h19V119.06m47.48-11.94V186H147V120.55h0l-19.12-12.63V47.6h47.25Z"/><path class="cls-15" d="M81.48,68.79,81.41,0,21.93,34.63v156.6H60.48V90.31L77.29,73.93V191.66h4.32l20.52-.81L102.49,89Zm-4.19-.91L56.16,88.56v98.35H26.25V36.43l51-29.66Z"/></g></g></svg>